<?xml version="1.0" encoding="utf-8"?>
<!-- Generator: Adobe Illustrator 25.4.1, SVG Export Plug-In . SVG Version: 6.00 Build 0)  -->
<svg version="1.1" id="Livello_1" xmlns="http://www.w3.org/2000/svg" xmlns:xlink="http://www.w3.org/1999/xlink" x="0px" y="0px"
	 viewBox="0 0 512 512" style="enable-background:new 0 0 512 512;" xml:space="preserve">
<style type="text/css">
	.st0{fill:#6D4021;}
</style>
<g>
	<path class="st0" d="M139.4,218.8c0.2-9.3,0.4-18.6,0.6-27.9c0-1.4,0.1-2.8,0.5-4.1c0.2-0.7,1-1.3,1.5-1.9c0.5,0.7,1.4,1.3,1.5,2.1
		c0.3,2.7,0.4,5.3,0.4,8c0,7.3,0,14.6,0,21.9c0,0.6,0.1,1.2,0.2,1.8c0.2,0,0.5,0,0.7,0c0-5-0.1-10,0-15c0.1-5.3,0.2-10.7,0.6-16
		c0.1-0.9,1.1-1.8,1.7-2.7c0.5,1,1.5,1.9,1.5,2.9c0.4,7.5,0.6,14.9,0.9,22.4c0.1,2.9,0.3,5.8,0.9,8.7c0-6.7,0-13.4,0-20.1
		c0-3.7,0.1-7.4,0.4-11c0.1-1,1.1-1.8,1.7-2.8c0.6,0.9,1.7,1.8,1.8,2.7c0.4,2.9,0.6,5.9,0.6,8.8c0,10.8-0.1,21.6-0.1,32.4
		c0,2.4-0.5,4.6-2.3,6.2c-4,3.5-4.7,7.9-4.3,13c0.6,6.6,0.7,13.3,1,19.9c0.1,1.2,0.1,2.4,0.2,3.9c1.1-0.2,2-0.3,2.8-0.6
		c9.4-3.6,17.9-8.6,25.1-15.7c1.1-1.1,1.9-2.9,2-4.5c2.8-31.7,18.2-55.2,46.9-68.7c27.1-12.7,54.4-10.6,79.1,6.4
		c26,17.8,37.7,43.3,35.1,75c-0.5,5.7-0.7,5.7,4.8,7.2c7.8,2.1,15.8,2.8,23.8,1.8c1.2-0.1,2.3-0.5,3.5-0.8c3.2-0.8,5.2-2.7,5.3-6.1
		c0.1-3.1,0.2-6.3,0.1-9.4c-0.2-3.5-2.1-6.1-5.2-7.6c-1.8-0.8-2.6-2.2-2.6-4.1c-0.9-21.5,0.5-42.8,8-63.2c0.9-2.4,2.6-4.7,4.3-6.6
		c1.6-1.8,3.8-1.2,4.4,1.2c0.5,2.2,0.6,4.6,0.6,6.8c-0.1,12.7-0.4,25.4-0.5,38.2c-0.1,8.4,0.6,16.9-0.2,25.2
		c-0.7,6.3-0.3,12.6-0.4,18.9c0,0.8,0.2,1.6,0.2,2.3c16.7-1.1,32.9-3.9,48.2-10.5c0.8-0.4,1.8-0.3,2.7-0.5c0.1,0.5,0.2,0.9,0.3,1.4
		c-5.7,2-11.3,4.1-17.1,5.9c-9.3,2.9-18.9,4.1-28.5,5c-5.7,0.5-5.7,0.7-5.6,6.3c0.3,18.5,0.7,37.1,1,55.6c0.1,5.2-0.5,5.7-5.8,5.9
		c-0.2,0-0.4,0-0.6,0c-6.3,0.1-7.1-0.8-6.7-7.1c0.8-13,1.4-26,2-39c0.2-4.7,0.5-9.4,0.7-14.1c0.1-3.4,1.8-5.6,4.8-6.8
		c2.2-0.9,2.7-2.2,2.5-4.4c-0.4-4.1-0.5-8.3-0.7-12.4c0-0.3-0.1-0.6,0-0.8c2.8-7.6,1.1-15.5,1.4-23.3c0.4-12.5,0.5-25.1,0.6-37.6
		c0-4.2-0.2-8.5-0.3-12.7c0-0.9-0.4-1.7-0.8-3.5c-1.5,1.7-2.9,2.7-3.3,4c-2.4,7.2-4.9,14.5-6.6,21.9c-3.4,14.3-3.2,28.9-2.8,43.5
		c0,1,0.8,2.4,1.6,2.8c4,2.2,6.2,5.5,6.3,10c0.1,3.3,0,6.6-0.4,9.9c-0.4,3.8-3,5.8-6.5,6.7c-8.2,2.1-16.5,1.5-24.7-0.2
		c-2.9-0.6-5.8-1.5-8.9-2.3c-2,9.6-5.3,18.4-10.4,26.5c-8.7,14-20.4,24.8-35.5,31.3c-27.4,11.9-54,9.8-78.7-6.8
		c-20.7-13.8-32.2-33.7-35-58.5c-0.6-5.4,0.7-6.7,6.1-8c3.4-0.8,6.8-1.9,9.8-3.7c1.6-1,3.1-3.3,3.4-5.3c3-18.1,12-32.3,27.1-42.6
		c21.2-14.5,51.3-13.4,71.4,2.5c14.9,11.8,23,27.3,23.9,46.4c0,0.9,0.2,1.9,0.6,2.6c3.9,5.7,9.2,9.6,16.1,12.8
		c0.3-4.9,1-9.3,0.9-13.8c-0.8-25.8-11.2-46.8-31.8-62.5c-12.3-9.4-26.4-14.6-41.9-15.5c-26.9-1.5-49.1,8.2-66.4,28.6
		c-9.7,11.4-15.4,24.8-17.2,39.8c-0.1,1-0.5,2-0.4,3c0.7,5.3-2.2,8.6-5.9,11.6c-7.7,6.3-16.2,11.1-25.2,14c0,7.8-0.1,15.2,0,22.7
		c0.1,11.7,0.4,23.4,0.6,35.1c0.1,3.6-0.7,4.3-4.2,4.7c-0.2,0-0.4,0-0.6,0c-7.2,0.5-8-0.3-7.8-7.3c0.4-13.9,0.9-27.8,1.3-41.7
		c0.3-9.5-5.7-18.4-15.4-23c-7-3.3-14.5-4.2-21.9-5.5c-6.2-1.1-12.4-1.9-18.5-2.9c-0.6-0.1-1.2-0.4-1.8-1.2c0.8-0.2,1.6-0.7,2.3-0.5
		c12,2.1,24,3.9,35.8,6.7c9,2.2,16.4,7.7,19.5,16.9c1.5,4.3,1.8,9.2,1.7,13.8c-0.2,13.5-0.9,26.9-1.4,40.4c-0.1,1.5,0.4,2.3,1.9,2.4
		c0.7,0,1.4,0.3,2.2,0.4c4.5,0.4,5.3-0.5,5.2-5c-0.3-10.1-0.3-20.3-0.5-30.4c-0.2-7.7-0.5-15.5-0.8-23.2c0-0.5-0.2-1.1-0.3-1.7
		c-0.8-0.1-1.6-0.1-2.3-0.2c-4-0.4-5.2-2-5-6c0.3-7.9,0.4-15.9,0.6-23.8c0.1-3.4-1.1-6.4-3.7-8.6c-2.9-2.5-3.7-5.6-3.6-9.4
		c0.4-12.3,0.6-24.5,0.9-36.8c0-0.8-0.1-1.7,0.3-2.4c0.4-0.9,1.2-1.6,1.8-2.5c0.5,0.9,1.5,1.7,1.5,2.6c0.3,5.3,0.5,10.7,0.6,16
		c0.1,5.1,0,10.1,0,15.2C138.9,218.8,139.2,218.8,139.4,218.8z M202.1,262.2c0.1,1.5,0.1,3.6,0.5,5.6c6.1,32.2,37.8,53.3,69.9,46.4
		c24.5-5.3,43.2-25.1,46.7-49.7c0.4-3.1,0.7-6.5,0-9.5c-0.9-4.2-3.2-8-4.2-12.2c-7-28.5-34-47.1-62.9-42.8
		C219.7,204.8,203,231.9,202.1,262.2z M321.9,259.7c-1.1,4.8-1.8,10-3.4,15c-9.4,28.9-38.2,47-69.3,41.5
		c-18.6-3.3-32.5-13.8-41.8-30.2c-4.7-8.4-7.7-17.3-7.1-27.2c0.5-9.8,3.2-19,7.2-27.9c10.6-23.6,37.9-37.7,63-32.3
		c25.1,5.4,40.6,20.8,46.5,45.8c0.5,2,1.1,3.9,1.7,5.8c0.3-0.1,0.6-0.2,0.9-0.2c-0.7-3.6-1.2-7.2-2.2-10.7
		c-8.2-28.3-35.5-46.1-63.7-42.9c-15.7,1.8-28.7,8.7-39.1,20.6c-7.6,8.7-12,18.9-13.7,30.3c-0.5,3.4-2.2,5.9-5.3,7.2
		c-3.2,1.3-6.5,2.5-9.9,3.4c-3.6,0.9-4.8,2-4.3,5.7c0.4,3.6,0.9,7.2,1.8,10.6c10.5,41.4,49.5,67.1,91.2,59.1
		c32.4-6.2,52.9-26.2,62.2-57.8c1.3-4.6,1.1-4.4-3-7C329.5,265.6,325.6,262.5,321.9,259.7z M147.2,193.8c-0.2,0-0.5,0.1-0.7,0.1
		c0,2.7,0,5.3,0,8c0,5.4-0.1,10.9-0.1,16.3c0,1.6-0.1,3.5-2.2,3.4c-2.2,0-2.1-1.9-2.1-3.5c0-0.1,0-0.2,0-0.3c0-7.9,0-15.8,0-23.8
		c-0.2,0-0.5,0-0.7,0c0,8,0,16,0,24c0,1.6,0,3.4-2.1,3.5c-2.3,0.1-2.2-1.7-2.2-3.4c0-4.9-0.1-9.8-0.2-14.7c0-3.7,0-7.3,0-11
		c-0.2,0-0.5,0-0.7,0c-0.1,0.6-0.2,1.2-0.2,1.8c-0.2,10.6-0.3,21.2-0.7,31.8c-0.1,3.4,0.6,6.1,3.2,8.4c3.3,2.9,4.3,6.7,4.1,11
		c-0.3,7.3-0.4,14.6-0.6,21.8c-0.1,4.6,0.5,5.1,5.5,4.7c0-0.8,0.2-1.6,0.1-2.4c-0.3-7.4-0.4-14.8-1.1-22.1
		c-0.5-5.5,0.6-10.1,4.7-14.1c1.1-1.1,1.8-3.1,1.8-4.7c0.2-11,0.2-21.9,0.2-32.9c0-1.7-0.2-3.4-0.2-5.2c-0.6,0.8-0.8,1.7-0.8,2.6
		c-0.1,4-0.1,7.9-0.1,11.9c0,4.5,0.1,9-0.1,13.6c0,1-1.2,1.9-1.9,2.8c-0.7-0.9-1.6-1.7-2.2-2.7c-0.3-0.4-0.1-1.1-0.1-1.6
		c-0.1-5.1-0.1-10.1-0.2-15.2C147.5,199.5,147.3,196.7,147.2,193.8z M385,270.7c-4.3,1.2-6,2.8-6.1,5.5c-0.9,17.8-1.9,35.5-2.7,53.3
		c-0.3,5.3,0.3,5.7,5.9,5.4c0.1,0,0.2,0,0.3,0c2.4,0,3.6-0.7,3.5-3.6c-0.4-13.5-0.6-26.9-0.8-40.4C385,284.3,385,277.7,385,270.7z"
		/>
	<path class="st0" d="M174.3,117.1c0.7,0.9,1.3,1.6,1.8,2.3c3.3,4.2,7.6,5.8,12.7,4.5c5.5-1.3,10-4,11.5-9.9
		c1.2-4.8-0.9-10.2-5.7-13c-4.5-2.6-9.5-4.3-14.3-6.4c-2.5-1.1-5-2-7.4-3c-12.3-4.9-13.1-18.7-5.9-26.7c6.5-7.3,14.9-9.5,24.4-8.6
		c0.9,7,0,12.5-2.3,13.3c-0.2-0.3-0.4-0.6-0.5-0.9c-1.8-6.1-5.3-8.1-11.6-6.6c-1.3,0.3-2.7,0.8-3.9,1.4c-3.2,1.5-6,3.5-6.2,7.4
		c-0.2,4.3,1.5,7.9,5.3,9.9c4.1,2.1,8.4,3.7,12.7,5.5c3.2,1.3,6.6,2.3,9.7,3.9c11.3,5.5,14.6,17,7.6,27.5
		c-5.3,7.8-12.9,11.9-22.4,12.2c-3.6,0.1-6.8-1.4-9.4-3.9c-1.1-1-1.4-2-0.3-3.3C171.5,120.9,172.8,119,174.3,117.1z"/>
	<path class="st0" d="M118.5,169.6c2.5-2.9,5-5.7,7.8-8.9c1.1,4.4,1.8,8.1-1.9,11.6c-3.4,3.2-6.2,7.1-9.3,10.6
		c-0.6,0.7-1.3,1.4-2.4,2.5c-0.4-2.7-0.9-4.9-0.9-7.1c0-0.9,0.6-2.1,1.4-2.7c2.2-1.8,2.5-4,1.4-6.2c-1.4-2.9-2.7-6-4.9-8.2
		c-9.9-10.1-20.2-20-30.2-29.8c-4.7,3-8.8,12.7-7.6,17.6c1.4,5.5,5.4,8.4,10.6,9.8c1.7,0.5,2.4,1.1,2.6,2.9c0.2,2.6,0.6,5.2,1,8
		c-16.8-6.2-25-28-6-49.1c2.4,2.6,4.7,5.4,7.2,7.9c7,6.9,14.1,13.8,21.2,20.7c0.6,0.6,1.2,1.2,1.8,1.7c5.2,5.1,10.1,10.3,7.3,18.8
		C117.9,169.6,118.2,169.6,118.5,169.6z"/>
	<path class="st0" d="M111,66.5c0,2.9,0.1,5.5-0.1,8c-0.1,0.8-1,1.7-1.7,2.2c-7,4.5-9,9.6-5.8,17.4c1.5,3.8,3.6,7.5,5.9,10.9
		c8.4,12.6,16.9,25,25.4,37.5c1.1,1.6,2.3,3.1,3.7,4.5c1.8,1.8,3.3,1.4,3.6-1.1c0.2-2.3-0.2-4.7-0.5-7.1c-0.1-0.8-0.4-1.6-0.6-2.3
		c0.3-0.2,0.5-0.3,0.8-0.5c0.8,1.1,1.9,2.2,2.2,3.4c1,4.6,1,9.2-0.6,13.6c-1.6,4.4-5.2,5.1-8.2,1.3c-3.4-4.3-6.5-8.9-9.7-13.4
		c-5.8-8.4-11.5-16.9-17.2-25.4c-6.1-9.1-9.5-18.9-8.6-29.9C100.3,77.5,103.8,71,111,66.5z"/>
	<path class="st0" d="M394.5,168.3c-5,0-9.8-0.8-13.9-4c-5-4-5.8-9.2-2.1-14.3c6.5-9.1,15.8-13.2,26.6-14.3
		c4.9-0.5,9.7-0.5,14.4,1.5c8.4,3.7,10.3,11.3,4.3,18.3C416.2,164.6,406,168.1,394.5,168.3z M409.6,137.7c-0.6,0-1.1,0-1.7,0
		c-0.5,0-0.9,0.1-1.4,0.2c-8.7,2.3-15.2,7.6-20,15.1c-2,3-2.5,6.4-0.1,9.5c2.5,3.3,6,4.2,9.9,3.3c9.2-2,16.1-7.5,21-15.4
		C421.2,144,417.2,137.6,409.6,137.7z"/>
	<path class="st0" d="M247.9,83.7c-0.4,11.9-4.5,20.9-11.7,28.5c-1.1,1.1-2.4,2-3.7,2.8c-6.7,3.9-14.8,3.4-17.3-7.2
		c-3.3-14.2,1.5-26.1,11.3-36.3c1.3-1.3,3.1-2.3,4.9-3c7.4-3.2,13.2-0.4,15.3,7.4C247.4,78.8,247.6,81.9,247.9,83.7z M241.9,90
		c-0.7-2.6-1.5-7.7-3.6-12.2c-2.6-5.7-9.6-5.9-13.7-1.2c-6.5,7.5-5.1,25-0.4,31.2c3,4,9.2,4.2,12.6,0.3
		C240.8,103.7,241.6,98.2,241.9,90z"/>
	<path class="st0" d="M82.8,351c-2.7,1.6-8.3,0.9-9.5-1.4c-0.6-1.2-0.4-3.4,0.4-4.5c2.6-3.9,5.6-7.5,8.5-11.2c0.9-1.2,2.2-2,3-3.2
		c0.5-0.7,0.9-2,0.6-2.8c-1.1-3.5-1.2-3.4-4.7-2.3c-4.3,1.3-8.7,2.8-13.3-1.2c0.5,2.1,0.8,3.5,1.2,5.2c-2.5-0.1-4.3-0.6-4.9-3.3
		c-0.7-2.7-1.8-5.2-2.8-8.1c2.4,0.2,4.3,0.4,5.3,2.8c0.4,0.9,1.9,1.9,2.9,2c2.3,0.1,4.8,0,7.1-0.6c8.2-2.3,16.4-4.9,24.6-7.4
		c0.4-0.1,0.8-0.4,1.2-0.5c-3.4-8-10.9-10.2-17.8-5.4c-1.8,1.3-3.1,1-6.3-1.2c4.3-4.4,13.5-5,19.5-1.3c7.3,4.5,10.9,11.3,12.1,19.5
		c0.7,4.9-3,9.1-8.1,9.7c-3.5,0.4-6.8-0.2-9.8-2.2c-1.5-1-2.5-1-3.7,0.4c-2.6,3.1-5.5,6-8,9.1C76.2,348.2,76.7,349.5,82.8,351z
		 M87.5,323.6c1,6.1,3,8.3,8.1,8.9c7.6,0.9,12.5-5.2,9.6-12.3c-0.2-0.6-1.3-1.5-1.8-1.3C98.1,320.4,92.8,322,87.5,323.6z"/>
	<path class="st0" d="M341.2,82c-2.8,1.9-5.2,3.5-7.6,5c-0.5,0.3-1.4,0.1-2-0.2c-3.1-1.7-6-1.3-8.9,0.4c-7.2,4.3-12.4,10.4-15.7,18
		c-1.2,2.9-2.5,5.8-3.4,8.8c-0.8,2.9-2.4,4.1-5.3,3.8c-0.9-0.1-1.8,0-3.2,0c1.4-3.8,2.8-7.2,4.1-10.6c3.1-8,6.2-16,9.1-24
		c0.4-1.2,0.1-2.8,0.1-4.2c-1.5,0.2-3.2,0-4.3,0.7c-2,1.2-3.7,3-6.1,4.4c0.3-1.1,0.4-2.4,1-3.1c3.5-3.7,7.8-6.2,12.7-7.3
		c3.6-0.8,6,1.7,5,5.4c-1.3,4.6-3,9-4.6,13.5c4-3.3,7.8-6.8,12-9.9c3.6-2.6,7.7-4.4,12.4-3C338,80.2,339.4,81,341.2,82z"/>
	<path class="st0" d="M259.2,113.5c0.8-4.6,1.5-9,2.2-13.3c1.2-7.1,2.5-14.1,3.6-21.2c0.2-1.3,0.3-2.6,0.3-3.9
		c0-2.4-1.5-3.2-3.5-1.9c-1.5,1-2.7,2.5-3.9,3.9c-0.8,0.9-1.3,2-1.9,2.9c-0.3-0.1-0.6-0.1-0.9-0.2c0.1-1-0.1-2.3,0.4-3
		c2.8-4.4,6.5-7.8,11.3-9.7c3.4-1.4,5.9,0.4,5.7,4.2c-0.2,3.5-0.9,6.9-1.3,10.4c-0.2,1.3-0.3,2.5-0.6,4c3.3-4.1,6.2-8.2,9.5-11.8
		c3.1-3.4,6.7-6.2,11.7-5.8c1.6,0.1,3.1,0.7,5.2,1.3c-2.4,2.5-4.3,4.5-6.3,6.4c-0.4,0.4-1.4,0.5-2,0.3c-3.8-1.3-6.9,0.1-9.5,2.7
		c-6.6,6.5-10.4,14.4-11.7,23.5c-0.3,2.1-1,4.2-1,6.3c-0.1,2.7-1.5,3.7-3.9,4.1C261.7,112.9,260.7,113.2,259.2,113.5z"/>
	<path class="st0" d="M397.4,116.1c-1.9,0.4-3.5,0.7-5.1,1c-1.4,0.3-2-0.3-2.8-1.5c-1.2-1.9-2.7-3.8-4.5-5.1
		c-3.3-2.4-6.8-0.8-7.2,3.2c-0.3,3.1,0,6.2,0.2,9.4c0.2,3.3,0.8,6.6,0.8,9.9c0.1,6.4-3.3,10.5-9.5,12.2c-8.3,2.2-17.6-1.7-22-9.1
		c-0.2-0.4-0.3-0.8-0.7-1.6c2.7-0.3,5.2-0.6,7.2-0.8c1.8,2.8,3.2,5.4,5.1,7.5c1.8,2,4.4,3.3,7.2,2c2.8-1.3,4.4-3.7,4.4-6.8
		c0-3.8-0.4-7.5-0.7-11.3c-0.1-2-0.4-4-0.5-6c-0.1-6.9,3.3-10.8,10.1-12C385.8,106.1,394.1,110.2,397.4,116.1z"/>
	<path class="st0" d="M307,407.4c-2.5,2.1-4.7,3.5-6.5,5.3c-3.1,3.2-3.9,7.3-1.5,10.9c2.2,3.3,1.1,5.5-0.9,8
		c-4.8-6.2-3.6-15.9,2.8-22.2c4.6-4.5,10.2-6.9,16.5-7.4c6.9-0.6,10.9,3.1,11.1,10c0.2,7-3.4,12-9.3,15.1c-2.6,1.4-3.9,2.6-3,5.8
		c1,3.6,0.9,7.3-2.7,10.8c2.5-0.4,4.3-0.6,6.1-0.9c-1.2,4-6.8,6.6-13.2,6.4c0.8-2.1,1.3-4,4-4.7c1-0.3,2-2.6,2-4
		c0-3.3-0.4-6.6-1-9.8C310.2,423,308.6,415.6,307,407.4z M325.5,416.4c0-0.5,0-1.1-0.1-1.6c-0.1-0.7-0.3-1.4-0.5-2.2
		c-1.5-5.9-5.7-8.4-11.6-7.1c-1.5,0.3-2.1,0.9-1.8,2.4c1.1,5.4,2.1,10.8,3.3,16.2c0.1,0.6,0.9,1.4,1.4,1.4
		C320.9,425.6,325.4,421.1,325.5,416.4z"/>
	<path class="st0" d="M339.6,96.3c0.8-1,1.4-2.4,2.5-2.8c4.2-1.7,8.5-3.5,13-4.3c4.2-0.8,6,2,4.1,6c-1.2,2.5-2.7,4.8-4.2,7.1
		c-4.5,7.2-9.1,14.3-13.5,21.5c-0.6,0.9-0.5,2.3-0.7,3.5c1.2,0.1,2.6,0.5,3.6,0.1c2.6-1.2,5.1-2.8,8.4-4.7c-0.7,1.5-0.9,2.6-1.5,3
		c-4.1,3-8.5,5.7-13.7,6c-1.7,0.1-4.3-0.6-5-1.8c-0.8-1.2-0.3-3.8,0.6-5.3c5.3-8.8,10.9-17.3,16.2-26c0.9-1.5,1-3.4,1.5-5.2
		c-1.9,0.2-3.9,0.2-5.7,0.8c-1.8,0.6-3.3,1.9-4.9,2.9C340.2,96.8,339.9,96.5,339.6,96.3z"/>
	<path class="st0" d="M206,427.3c1.7-3.4,4.7-5.4,8.3-6.5c1.7-0.5,2.7,0.7,2.5,2.4c-0.2,2.1-0.8,4.1-1.3,6.2
		c-0.2,0.9-0.5,1.7-0.8,2.9c3-2.3,5.5-4.4,8.2-6.2c1.4-1,3.1-1.7,4.7-2.2c3.2-0.8,4.8,0.5,4.2,3.7c-0.7,3.5-1.9,6.9-3,10.3
		c-0.9,3-2,6-2.9,9c-0.3,0.9-0.3,1.9-0.4,2.9c0.3,0.2,0.5,0.4,0.8,0.6c1.8-1.4,3.5-2.9,5.4-4.4c0,2.7-2,3.8-3.7,5
		c-1.7,1.2-4,3.4-5.8,1.6c-1.1-1-0.7-4.1-0.2-6.1c1.3-5.1,3.2-10,4.6-15.1c0.4-1.2-0.2-2.7-0.3-4.1c-1.5,0.2-3.3,0-4.5,0.7
		c-4.6,2.7-7.6,6.8-9.5,11.8c-0.7,1.8-1.2,3.7-1.8,5.5c-1.1,3.5-1.1,3.5-5.4,4.1c1.1-3.6,2.2-7.1,3.2-10.6c1.2-4,2.4-7.9,3.5-11.9
		c0.2-0.8-0.1-1.7-0.2-2.5c-0.9,0.3-2,0.3-2.7,0.9c-0.9,0.7-1.6,1.7-2.3,2.6C206.5,427.8,206.2,427.5,206,427.3z"/>
	<path class="st0" d="M189.7,433.2c-3.7,1.9-7,3.9-10.5,5.5c-1.3,0.6-2.9,0.7-4.3,0.7c-2.5-0.2-3.7-1.7-3.3-4.1
		c1.5-9.7,11.4-20.7,22.6-19.4c2.6,0.3,5.1,1.6,7.9,2.5c-4.2,8-8.1,15.3-12,22.6c0.3,0.3,0.7,0.7,1,1c2-1.1,4-2.3,5.9-3.3
		c-0.5,2.7-7,6.6-9.9,5.7c-2-0.7-1.7-2.3-1.1-3.6C187.1,438.2,188.4,435.7,189.7,433.2z M179.4,436.2c0.3-0.1,0.7-0.1,1-0.2
		c7.4-2.4,12.3-7.5,15.5-14.3c0.2-0.4,0-1.3-0.3-1.7c-1.8-2.5-5.6-3.5-8.2-2c-5.8,3.4-8.9,8.9-10.7,15.2
		C176.3,435.2,177.5,436.1,179.4,436.2z"/>
	<path class="st0" d="M425.3,306c6.4,3.5,12.5,6.8,18.7,10c1.1,0.6,2.5,0.6,3.8,1c-0.5-1.4-0.8-2.8-1.5-4.1
		c-0.4-0.8-1.2-1.4-2.3-2.6c1.2,0.4,1.9,0.4,2.2,0.7c1.5,2.3,3.1,4.5,4.3,7c0.5,0.9,0.3,2.9-0.4,3.5c-0.6,0.6-2.4,0.4-3.5,0
		c-2.4-0.9-4.6-2.2-7.4-3.6c1.5,2.4,2.8,4.1,3.8,6c1.1,2.1,2.1,4.3,2.7,6.6c1.1,4.4-1.2,6.6-5.6,5.4c-7.6-2.1-13.3-6.7-16.5-13.9
		C421.1,316.6,421.5,311.2,425.3,306z M442.7,328.2c-0.2-0.7-0.4-1.7-0.8-2.6c-2.3-5.3-6.1-9.4-11.1-12.3c-3.7-2.1-5.8-1.4-6.6,2.9
		c-0.3,1.7,0.1,4,1.1,5.4c3.4,5,8.5,7.8,14.2,9.5C441.7,331.7,442.5,330.5,442.7,328.2z"/>
	<path class="st0" d="M147,391.9c7.7,0.1,10.7,5,7.2,10.7c-4.5,7.5-11.5,11.3-20.1,11.8c-6.7,0.4-9.9-4.5-6.8-10
		C131.8,396.5,139.1,392.9,147,391.9z M136.8,413c0.4-0.1,1.6-0.3,2.5-0.8c5-2.3,8.3-6.3,10.6-11.2c1-2.1,1.5-4.3-0.4-6.2
		c-1.9-2-4.4-1.9-6.7-0.9c-5.7,2.6-9.5,7-11.5,12.8C130.2,410.3,132.5,413.1,136.8,413z"/>
	<path class="st0" d="M243,429.7c-1.8-0.1-3.3-0.3-4.7-0.4c-0.1-0.2-0.3-0.4-0.4-0.6c1.3-0.9,2.5-2.3,3.9-2.5c1.7-0.3,2.3-1,2.3-2.5
		c-0.1-2.8,1.3-4,4.3-4.1c-0.2,2.1-0.4,4.2-0.7,6.6c3.5,0.3,6.9,0.5,10.6,0.8c-1.3,2.3-2.5,3.5-5.3,3.1c-6.2-0.7-6.2-0.6-7,5.5
		c-0.5,4.1-1.3,8.2-1.7,12.3c-0.1,1.4,0.7,2.8,1.1,4.2c1.4-0.6,2.8-1.3,4.2-2c0.4-0.2,0.7-0.6,1.1-1c0.1,3.6-5.6,7.8-8.5,6
		c-1.2-0.7-2.2-2.9-2.1-4.3c0.3-4.9,1.2-9.8,1.8-14.8C242.3,434.2,242.6,432.1,243,429.7z"/>
	<path class="st0" d="M128.1,377.8c-1.3-1.4-2.4-2.5-3.4-3.6c0.1-0.3,0.2-0.6,0.3-0.9c1.6,0.4,3.2,1,4.9,1.2c0.9,0.1,2.2,0,2.7-0.6
		c1.8-1.9,3.6-2.4,5.9-0.2c-1.5,1.3-3.1,2.7-5.2,4.6c2.9,2.3,5.6,4.4,8.3,6.6c-0.3,0.3-0.5,0.7-0.8,1c-1.9,0.6-3.7,0.7-5.3-1
		c-1.3-1.5-2.9-2.8-4.8-4.6c-5.1,4.6-10.3,9.1-15.3,13.8c-1.4,1.4-0.6,3.3,1.4,3.7c1.4,0.3,2.8,0.1,4.4,0.1c-2.3,1.8-7.1,2-9.1,0.5
		c-1.6-1.2-2.2-2.8-1.1-4.6c0.8-1.2,1.7-2.4,2.8-3.4C118.4,386.1,123.2,382.1,128.1,377.8z"/>
	<path class="st0" d="M275.6,445.5c0,4.5-5.4,10.1-9.5,10.4c-2.8,0.2-5.4-1.6-6.2-4.9c-0.6-2.4-0.9-4.9-0.6-7.3
		c0.6-5.5,3-10.4,6.5-14.7c0.4-0.5,0.9-1,1.3-1.4c2.3-2.2,5.4-3.1,6.9-1.9c2.3,1.8,1.7,4.4,1.1,6.6c-1.3,4.9-4.6,8.3-8.9,10.7
		c-3.4,1.9-3.8,3.4-1.7,6.5c1.6,2.5,5.1,3,7.5,0.9c1-0.9,1.8-2.1,2.6-3.2C274.9,446.7,275.2,446.1,275.6,445.5z M262.1,440.3
		c5.6,1.1,10-2.3,10.1-6.9c0-1.3-0.8-3.2-1.8-3.8c-1.6-1-3.6-0.3-4.4,1.5C264.5,434,263.4,437.1,262.1,440.3z"/>
	<path class="st0" d="M359.6,399.7c-2.9,1-5.4,1.8-7.8,2.6c-2.1,0.7-2.5,2.3-1.2,3.9c1.3,1.6,0.9,2.9,0.2,4.5
		c-3.9-4-2.8-10.2,1.9-12.3c3.1-1.4,6.1-2.9,9.6-4.6c-0.3,4.7-0.6,9.5-0.9,14.3c-0.3,4.8-0.5,9.7-0.4,14.8c4-3.2,10.1-2.6,12.8-7.7
		c1.5,2.1,0.9,4.9-1.5,6.3c-4.4,2.5-8.8,4.9-13.9,7.7C358.8,419.3,359.2,409.7,359.6,399.7z"/>
	<path class="st0" d="M380.1,379.1c0.4,4.8,0.7,9.6,1.1,14.5c0.4,4.8,0.7,9.5,1.5,14.6c3.3-4,9.6-4.2,11.6-9.7
		c1.9,2,1.5,4.8-1.1,6.8c-3.9,2.9-7.7,5.9-12,9.2c-2.1-9.5-1.3-19.4-3.1-29c-2.6,1.2-4.9,2.3-7.3,3.4c-1.8,0.9-1.7,2.1-0.8,3.6
		c0.7,1.4,1.2,2.9,1.5,4.5c-5-3.1-4.5-9.7,0.4-12.5C374.5,383,377,381.2,380.1,379.1z"/>
	<path class="st0" d="M407.9,377.8c0.3,0.8,0.9,1.5,0.9,2.3c0.3,2.5,0.7,4.9,0.5,7.4c-0.4,5.7-5.2,8.2-10.1,5.1
		c-6.7-4.2-9.3-11-10.2-18.4c-0.3-2.3,0-5,1-7.2c1.2-2.7,3.4-2.8,5.6-0.6c4.7,4.7,4.3,10.4,3.3,16.3c-0.2,1.4-2.3,2.9-0.3,4.4
		c1.9,1.3,3.9,2.7,6.3,1.6c2.1-1,3.2-2.8,3.1-5.1c-0.1-1.9-0.4-3.7-0.7-5.6C407.6,377.9,407.8,377.9,407.9,377.8z M394.1,384
		c4.8-3.2,5.6-8.8,2.5-12.3c-1.2-1.4-2.9-2.8-4.5-1.4c-1.1,0.9-2.1,3.1-1.8,4.4C391.1,377.8,392.7,380.7,394.1,384z"/>
	<path class="st0" d="M149.8,426.6c4-5.8,8-11.4,11.8-17.1c0.9-1.3,1.2-3.1,1.8-4.6c-1.7,0.4-3.3,0.9-5,1.3
		c-0.4,0.1-0.8,0.4-1.5,0.3c0.4-0.5,0.7-1.3,1.2-1.5c2.4-0.9,4.7-2.1,7.2-2.5c3.4-0.6,4.5,1.1,2.9,4.2c-0.6,1.2-1.4,2.3-2.2,3.5
		c-0.7,1-1.4,2-2.5,3.6c6.1-2.9,11.1-8.2,18.4-3c-2.9,1.5-4.7,3-7.6,1.3c-1.3-0.8-3.8-0.2-5.5,0.5c-5.7,2.3-9.6,6.7-12.8,11.8
		C154.8,426.6,153.3,428.6,149.8,426.6z"/>
	<path class="st0" d="M402.3,365.7c-2.6-2.3-4.3-8.1-3.2-10.5c0.9-2.3,2.6-1.7,4.1-0.7c1.1,0.7,2.1,1.8,3.2,2.7
		c1.1,0.9,2.1,1.8,3.6,2.4c-0.6-1.5-1.5-3-1.9-4.5c-0.7-2.7-1.5-5.5-1.8-8.3c-0.2-2.1,0.9-3.8,3.2-4.8c0.7,2.5,2,4.6-0.2,7.2
		c-0.9,1.1-0.6,3.7-0.1,5.5c1.6,5.7,5.3,10,9.8,13.7c3.6,2.9,3.5,3,2,6.6c-3.4-3-6.7-5.8-10-8.7c-2.4-2.1-4.6-4.2-7.1-6.2
		c-0.8-0.6-1.9-0.7-2.9-1.1c-0.1,1-0.3,2.1-0.2,3.1C401.1,363.1,401.7,364.1,402.3,365.7z"/>
	<path class="st0" d="M124.8,369.8c-2.6,0.3-4.1,0-4.9-2.6c-0.4-1.4-2.2-3.2-3.4-3.2c-1.2,0-2.8,1.9-3.4,3.3c-1,2.5-1.3,5.3-2,8
		c-1.5,5.8-4,7.9-9.1,7.7c-5.3-0.2-9.2-3.6-10.2-9.2c1.5,0.2,2.8,0.4,4.2,0.5c0.2,1.4,0.1,2.6,0.7,3.5c1,1.5,2.3,3.4,3.8,3.8
		c2.1,0.6,4-1,4.6-3.1c0.9-2.9,1.6-5.8,2.3-8.8c1.3-5.6,4.3-8,9.2-7.2C120.8,363.2,123.1,366,124.8,369.8z"/>
	<path class="st0" d="M335.7,411.5c-0.6,2-1.2,4-1.8,6c-1.2-2.5,0.4-9.1,2.8-10.3c0.7-0.4,2.6,0.2,3,0.9c1,1.6,1.6,3.5,2.2,5.3
		c1.5,4.4,2.9,8.9,4.5,13.3c0.4,1.3,1.1,2.5,1.7,3.9c3.1-1.7,1.9-4.5,2.6-6.7c0.2,0,0.5-0.1,0.5,0c1.1,2.4-0.5,9.1-2.5,10.7
		c-1.7,1.3-3,1-4-1.4c-1.4-3.5-2.6-7.1-3.8-10.6c-1-2.8-1.8-5.6-2.8-8.4c-0.3-0.9-0.8-1.8-1.2-2.6
		C336.5,411.5,336.1,411.5,335.7,411.5z"/>
	<path class="st0" d="M435.9,346.1c-0.9-2.2-1.8-4.3-2.6-6.4c2.5,1.2,5.4,7.7,4.6,10.3c-0.7,2.2-2.2,2.4-3.8,1.2
		c-4.2-2.9-8.2-5.9-12.4-8.8c-2.2-1.6-4.4-3-6.7-4.6c-0.3,0.2-0.7,0.5-1,0.7c0.7,2,1.3,4.1,2,6.1c-0.1,0.1-0.2,0.2-0.3,0.3
		c-0.6-0.8-1.5-1.4-1.8-2.3c-0.8-1.8-1.6-3.8-1.9-5.7c-0.2-1.1,0.2-2.7,0.9-3.4c0.5-0.5,2.4-0.2,3.2,0.4c4,2.6,7.8,5.5,11.7,8.3
		c2.3,1.6,4.6,3.2,6.8,4.8C435.1,346.7,435.5,346.4,435.9,346.1z"/>
	<path class="st0" d="M99.5,347.7c3.5-1.1,6.9-0.7,10,1.3c1.4,0.9,1.4,2.2,0.1,3.2c-1.3,1-2.8,1.8-4.2,2.5c-5,2.5-10.1,5-15.1,7.5
		c-0.7,0.4-1.2,1.2-1.8,1.8c0.8,0.4,1.6,1.1,2.5,1.3c1.3,0.2,2.7,0.1,4.2,0.1c-2.6,1.8-9.1,1.2-11-1c-1.1-1.2-0.9-2.2,0.3-3
		c1.6-1.1,3.3-2,5-2.9c4.6-2.3,9.3-4.5,13.9-6.9c0.9-0.5,1.7-1.2,2.5-1.8c0-0.3-0.1-0.7-0.1-1C103.6,348.5,101.6,348.1,99.5,347.7z"
		/>
	<path class="st0" d="M361.1,82.7c3.4-6.7,10-7.6,16.5-8.3C377.4,78.4,368.6,82.8,361.1,82.7z"/>
	<path class="st0" d="M337.3,391c1.6,4.6-0.4,7.9-2.2,11.6C333.1,398.2,335,394.8,337.3,391z"/>
	<path class="st0" d="M408.1,331.5c-3.5-3-3.5-3-4.8-10C406.3,322.7,407.8,325.9,408.1,331.5z"/>
	<path class="st0" d="M125.6,347.9c-4.1,1.7-7.4,0.6-11-0.8C118.4,344.7,121.8,345.9,125.6,347.9z"/>
	<path class="st0" d="M240.7,238.8c0.8,1.5,1.1,2.3,1.6,3c5.9,8,5.3,16.6,1.8,25.2c-1.5,3.7-4.8,4.9-8.7,3.9
		c-7.8-2.1-13.7-7-18.9-12.9c-1.9-2.2-1.6-4.5,0.9-7.1c4.4-4.5,9.4-8.2,15.3-10.7c6.8-3,13.5-6.3,20.3-9.4c4.3-2,5.4-1.4,6.9,2.9
		c0.4,1.1,1.8,2.4,3,2.6c10.5,1.8,19.4,6.8,26.9,14.3c2.6,2.6,3,2.6,5.3-0.2c1.5-1.8,2.8-4.3,5.7-3.4c2.8,0.8,3.3,3.4,4,5.9
		c1,3.6,0.4,6.9-1.6,10c-1.8,2.7-4.2,2.9-6.3,0.4c-1.1-1.3-2-2.7-2.8-4.1c-1-1.7-2-1.9-3.4-0.5c-2.2,2.1-4.3,4.4-6.8,6.1
		c-3.9,2.6-8,4.8-12.2,6.9c-2,1-3.2,2-3,4.3c0.2,2.9-1.6,4.3-4.2,4.9c-4,0.9-7.7-0.1-11.1-2.3c-2.6-1.7-2.7-3.2-0.3-5.2
		c2.7-2.3,5.7-4.2,8.1-6.7c5.4-5.5,7.1-12.5,1.5-19.3c-1.7-2.1-2.9-4.7-4.1-7.2c-0.9-2.1-2.3-3.1-4.5-2.8
		C249.8,237.7,245.5,238.3,240.7,238.8z M244.7,256.4c-0.5-5.6-1-10.2-4.6-13.6c-1.1-1.1-3.5-2-4.8-1.5c-6.2,2.5-11.7,6.3-16.3,11.1
		c-1.8,1.8-1.7,3.8,0.1,5.6c4.5,4.6,9.5,8.4,15.6,10.6c3.9,1.4,6.9,0.2,8.1-3.7C243.8,261.8,244.2,258.6,244.7,256.4z M259.4,271.6
		c4.8,0.4,8.9-0.6,12-4c4.4-4.9,5.9-10.8,5.2-17.1c-0.8-7.6-8.9-13.4-16.3-11.6c0.4,0.9,0.6,1.9,1.1,2.7c1,1.7,2,3.3,3.2,4.8
		c6.1,7.5,4.2,16.2-3,22.8C260.8,270,260.1,270.8,259.4,271.6z M274.5,267.4c4.4-1,14.4-8.4,15.7-11.4c0.3-0.6,0.2-1.8-0.2-2.2
		c-3.5-3.1-7.1-6.1-10.7-9.1c-0.3-0.2-0.9-0.1-2-0.3C280,252.4,279.1,259.8,274.5,267.4z M303.3,255.9c-0.5-1.9-0.9-3.7-1.5-5.4
		c-0.7-1.6-2-2.2-3.4-0.7c-1.2,1.3-2.4,2.6-3.3,4c-0.4,0.7-0.4,2-0.1,2.7c0.9,1.8,2.2,3.4,3.4,5c1.1,1.5,2.5,1.4,3.2-0.2
		C302.4,259.6,302.7,257.7,303.3,255.9z M254.2,275c2.5,3.8,7.6,5,10.4,3.2c0.8-0.5,1.3-1.7,1.5-2.6c0.1-0.4-1-1.6-1.5-1.5
		C261.1,274.3,257.7,274.7,254.2,275z M250.1,234.3c0.1,0.3,0.1,0.6,0.2,0.9c1.9,0,3.9,0.1,5.8-0.1c0.5-0.1,0.9-1.1,1.3-1.7
		c-0.7-0.5-1.5-1.4-1.9-1.3C253.7,232.6,251.9,233.5,250.1,234.3z"/>
</g>
</svg>
